<svg fill="none" height="50" viewBox="0 0 50 50" width="50" xmlns="http://www.w3.org/2000/svg"><path d="m25 .252441c-13.8125 0-25 11.248559-25 25.121759 0 11.1015 7.1625 20.5157 17.0937 23.8349 1.25.2365 1.7084-.5411 1.7084-1.2079 0-.5965-.0209-2.1773-.0313-4.2715-6.9541 1.5147-8.4208-3.3703-8.4208-3.3703-1.1375-2.8995-2.78125-3.6749-2.78125-3.6749-2.26458-1.5574.175-1.5254.175-1.5254 2.51045.1747 3.82915 2.5884 3.82915 2.5884 2.2292 3.8412 5.8521 2.7312 7.2813 2.09.225-1.6255.8687-2.7312 1.5833-3.3597-5.5521-.6285-11.3875-2.7887-11.3875-12.4138 0-2.7419.9687-4.9831 2.5729-6.7406-.2812-.6349-1.125-3.1893.2188-6.649 0 0 2.0937-.6732 6.875 2.5756 2-.5581 4.125-.8351 6.25-.8479 2.125.0128 4.25.2898 6.25.8479 4.75-3.2488 6.8437-2.5756 6.8437-2.5756 1.3438 3.4597.5 6.0141.25 6.649 1.5938 1.7575 2.5625 3.9987 2.5625 6.7406 0 9.6507-5.8437 11.7747-11.4062 12.3925.875.7542 1.6875 2.2945 1.6875 4.6486 0 3.3617-.0313 6.0631-.0313 6.879 0 .6583.4375 1.4444 1.7188 1.193 10.002-3.2978 17.1583-12.7185 17.1583-23.8029 0-13.8732-11.1938-25.121759-25-25.121759z" fill="#333"/></svg>