<svg fill="none" height="50" viewBox="0 0 50 50" width="50" xmlns="http://www.w3.org/2000/svg"><g fill="#333"><path d="m37.2491 20.873-2.3657-.4721c-.0763-.3401-.1624-.6566-.2512-.9454l2.4461.0805.0181-.5553-2.6517-.0874c-.0666-.1861-.1305-.3513-.1888-.4929l2.6905-.9232.0334-.6164-2.9488 1.0287c-.0236-.0486-.0374-.0749-.0374-.0749-4.1094-7.4329-11.5423-5.6323-11.5423-5.6323s-6.325.9565-8.0437 7.9243l-2.9779-.5608v.5345l2.8557.5692c-.0347.1679-.0653.3401-.0944.5136l-2.56.2555.0555.5525 2.4226-.2416c-.0042.0347-.0097.0667-.0139.1014-.0278.2291-.0472.4498-.0611.6678l-2.2518.8982-.0111.515 2.2379-.8066c-.0972 7.2594 7.1955 7.2205 7.1955 7.2205 8.9101.093 11.6339-2.5392 11.6339-2.5392 2.349-1.9783 2.5128-4.6979 2.1574-6.7984l2.249.4262v-.5414z"/><path d="m36.9965 37.7601c-4.3856 5.2172-20.3134 6.9706-25.9457-1.6618-5.63231-8.6324.093-18.6975.093-18.6975l-.969-3.9247c-.41513-1.9852 1.3855-1.5701 1.3855-1.5701l3.6012.7844c7.3399-5.95581 15.4197-2.1699 15.4197-2.1699l3.5082-2.12413c1.5702-.55392 1.616.96903 1.616.96903l.2305 5.0325c7.4787 8.3103 4.5244 17.2662 4.5244 17.2662-.8774 1.7548-.2777 2.5392-.2777 2.5392l1.2925 1.5229c.8316.8774 1.8465.4623 1.8465.4623 1.8922-.4623 3.4165.4151 3.4165.4151s.118.0514.3082.1347c1.8701-3.5013 2.9321-7.5009 2.9321-11.7491 0-13.801-11.1882-24.9892-24.9892-24.9892s-24.9892 11.1882-24.9892 24.9892 11.1882 24.9892 24.9892 24.9892c7.1094 0 13.5247-2.9695 18.0755-7.7341l-.2971-.1208c-3.9705-.9927-5.7711-4.3634-5.7711-4.3634z"/></g></svg>