<svg fill="none" height="50" viewBox="0 0 50 50" width="50" xmlns="http://www.w3.org/2000/svg"><path d="m25 .242676c-13.8069 0-25 10.977824-25 24.519224s11.1931 24.5192 25 24.5192 25-10.9778 25-24.5192-11.1931-24.519224-25-24.519224zm6.3194 19.803324c.3514.2139 2.1431.9168 4.0667.1758 1.0875.2778-2.2514 4.3535-7.675 4.788-2.2597.3474 1.575 1.0489 3.3153.2902 1.3222-.2479-2.8806 5.1177-9.0236 5.3084-4.2139.1294-6 4.6995-8.7722 9.6987-1.4445 2.6045-3.90699 1.1129-2.5639-1.4071 0 0 4.8805-9.7669 6.1152-12.118 0 0 5.1292-11.475 13.4612-14.2933 8.1736-2.76525 9.425-4.63553 9.425-4.63553s1.2222 11.02953-8.3487 12.19283z" fill="#333"/></svg>