<svg fill="none" height="50" viewBox="0 0 50 50" width="50" xmlns="http://www.w3.org/2000/svg"><path d="m25 .242676c-13.8069 0-25 10.977824-25 24.519224s11.1931 24.5192 25 24.5192 25-10.9778 25-24.5192-11.1931-24.519224-25-24.519224zm13.4542 18.036624c.1972 1.9329-1.282 15.0807-12.025 18.6578-10.7445 3.5771-18.13614-1.5475-18.13614-1.5475 6.30834.3869 9.85694-2.7066 9.85694-2.7066-5.3222-.7737-6.3083-4.7363-6.3083-4.7363 1.1833.1934 2.6611-.2902 2.6611-.2902-5.51947-2.4165-5.02641-6.7673-5.02641-6.7673 1.08471 1.0639 2.85831.8705 2.85831.8705-5.12498-3.964-2.0694-9.2806-2.0694-9.2806 5.6347 6.2742 11.6778 7.1229 14.1375 7.1842-.0917-.4468-.1403-.91-.1403-1.384 0-3.8441 3.1778-6.9607 7.0972-6.9607 2.1153 0 4.0125.9085 5.3125 2.347 1.6153-.3542 4.0514-1.6714 4.0514-1.6714-.2472 1.2954-2.218 2.9927-2.8542 3.5117.0292.0667.057.1335.0848.2016 1.1361.0204 3.7541-1.1034 3.7541-1.1034-1.0861 2.1278-3.2541 3.6752-3.2541 3.6752z" fill="#333"/></svg>